# xmcd
#
# Track frame offsets: 
#        150
#        10582
#        24002
#        37262
#        48327
#        58777
#        68837
#        78810
#        91072
#        104052
#        115872
#        127077
#        135705
#        145680
#        159910
#        170745
#        180642
#        191587
#        201735
#        215965
#        230515
#        244125
#        260102
#
# Disc length: 3654 seconds
#
# Revision: 1
# Processed by: cddbd v1.5.2PL0 Copyright (c) Steve Scherf et al.
# Submitted via: ExactAudioCopyFreeDBPlugin 1.0
#
DISCID=520e4417
DTITLE=Mac Wiseman - Tis Sweet to Be Remembered
DYEAR=1964
DGENRE=Bluegrass
TTITLE0=Are You Missing Me
TTITLE1=Freight Train
TTITLE2=Have A Drink On Me
TTITLE3=Just A Strand From A Yellow Curl
TTITLE4='Tis Sweet To Be Remembered
TTITLE5=Goin' Like Wildfire
TTITLE6=I Like Good Bluegrass Music
TTITLE7=The Scene Of The Crime
TTITLE8=Your Best Friend And Me
TTITLE9=What A Waste Of Good Corn Likker
TTITLE10=When The Moon Comes Over The Mountain
TTITLE11=Mother Knows Best
TTITLE12=Old Pair Of Shoes
TTITLE13=The Mole
TTITLE14=If I Could Live That Way
TTITLE15=Heads You Win Tails You Lose
TTITLE16=Bluegrass Music's Really Gone To Town
TTITLE17=Dark Hollow
TTITLE18=Brother Joe
TTITLE19=Katie Waits For Me
TTITLE20=Sweet Summers Gone Away
TTITLE21=Brush It Off (It's All In Your Mind)
TTITLE22=They're All Goin' Home But One
EXTD=
EXTT0=
EXTT1=
EXTT2=
EXTT3=
EXTT4=
EXTT5=
EXTT6=
EXTT7=
EXTT8=
EXTT9=
EXTT10=
EXTT11=
EXTT12=
EXTT13=
EXTT14=
EXTT15=
EXTT16=
EXTT17=
EXTT18=
EXTT19=
EXTT20=
EXTT21=
EXTT22=
PLAYORDER=
